<?xml version="1.0" encoding="UTF-8" standalone="no"?>
<svg xmlns="http://www.w3.org/2000/svg" width="128" height="128" viewBox="0 0 128 128">
    <mask id="clip-path">
        <rect style="fill:#fff;" width="100%" height="100%"/>
        <text x="71" y="94" dominant-baseline="middle" style="fill:#000;text-anchor:middle">
            ${ext}
        </text>
    </mask>
    <path mask="url(#clip-path)"
          d="m106 66h10c4 0 8 4 8 8L124 106c0 4-4 7-8 8h-10v8c0 3-3 6-6 6H10c-3 0-6-3-6-6V6C4 3 7 0 10 0L70 0C71 0 72 0 74 2l30 30c2 2 2 2 2 4zM28 66 100 66 100 38H76C72 38 70 36 70 32L70 6V6H12c0 0-2 0-2 2L10 120C10 122 10 122 12 122h86c2 0 2 0 2-2L100 114 28 114c-4 0-8-3-8-8l0-32c0-4 4-8 8-8z"/>
</svg>