<svg xmlns="http://www.w3.org/2000/svg" width="120" height="40" viewBox="0 0 120 40" fill="none">
  <path d="m7.9 16.5v9.1c0 0.2 0.1 0.3 0.4 0.4 0.9 0.2 1.8 0.2 2.7 0.2 4.3 0 6.4-1.8 6.4-5.4 0-3.3-2.1-4.9-6.4-4.9-0.9 0-1.8 0.1-2.7 0.2-0.2 0.1-0.4 0.2-0.4 0.4zm-3.3 13.8c-0.6-0.1-1.2-0.4-1.6-0.8-0.4-0.5-0.6-1.1-0.6-1.7V3.3c0-0.6 0.2-1.1 0.6-1.6 0.5-0.5 1-0.7 1.6-0.7H19c0.6 0 1.1 0.2 1.6 0.6 0.4 0.4 0.6 0.9 0.6 1.5 0 0.6-0.2 1.1-0.7 1.6-0.4 0.4-0.9 0.6-1.5 0.6H8.3c-0.2 0-0.4 0.1-0.4 0.3v6c0 0.2 0.1 0.3 0.3 0.3 1.1-0.1 2.2-0.2 3.3-0.2 3.7 0 6.4 0.8 8.3 2.4 1.9 1.5 2.8 3.8 2.8 6.7 0 3.4-1 5.8-2.9 7.4-1.9 1.6-5 2.4-9.1 2.4-2 0-4-0.1-6-0.3zm30.2-10.1c-3.8 0-5.7 1.2-5.7 3.5 0 0.9 0.2 1.5 0.7 2.1 0.5 0.5 1.1 0.8 1.9 0.8 1.5 0 2.7-0.5 3.7-1.4 0.9-1 1.4-2.3 1.4-3.9v-0.7c0-0.2-0.1-0.4-0.4-0.4zm-4.5 10.4c-1.8 0-3.3-0.6-4.5-1.8-1.2-1.2-1.8-2.7-1.8-4.6 0-2.3 0.9-4.1 2.6-5.4 1.8-1.3 4.5-1.9 8.2-1.9h1.6c0.2 0 0.4-0.1 0.4-0.4v-0.3c0-1.2-0.3-2.1-0.9-2.6-0.6-0.5-1.6-0.8-3.1-0.8-1.5 0-3.4 0.3-5.7 0.8-0.5 0.1-0.9 0.1-1.3-0.2-0.4-0.3-0.6-0.7-0.6-1.2 0-0.6 0.2-1.2 0.6-1.6 0.4-0.5 0.9-0.8 1.4-0.9 2-0.5 3.9-0.7 5.7-0.7 3.4 0 5.8 0.6 7.2 1.8 1.4 1.2 2 3.4 2 6.4v10.6c0 0.6-0.2 1.1-0.7 1.6-0.4 0.5-0.9 0.7-1.6 0.7h-0.4c-0.6 0-1.2-0.2-1.6-0.6-0.5-0.5-0.7-1-0.7-1.6v-0.6c0 0 0 0 0 0-0.1 0-0.1 0-0.1 0-1.6 2.2-3.9 3.2-6.7 3.2zm20.4-13.5v5.4c0 1.1 0.5 2 1.4 2.8 0.9 0.8 2 1.2 3.2 1.2 1.4 0 2.5-0.6 3.4-1.7 0.8-1.1 1.2-2.8 1.2-5.1 0-4.5-1.5-6.8-4.6-6.8-1.2 0-2.3 0.4-3.2 1.2-0.9 0.8-1.4 1.8-1.4 2.8zm-3 21.9c-0.6 0-1.1-0.2-1.6-0.7-0.5-0.5-0.7-1-0.7-1.6v-25c0-0.6 0.2-1.1 0.7-1.6 0.5-0.5 1-0.7 1.6-0.7h0.5c0.6 0 1.2 0.2 1.6 0.7 0.5 0.4 0.7 1 0.7 1.6v0.3c0 0 0 0 0 0 0 0 0.1 0 0.1 0 1-1.1 1.9-1.8 2.9-2.3 1-0.5 2.1-0.7 3.4-0.7 2.5 0 4.5 0.9 6 2.8 1.5 1.9 2.2 4.5 2.2 8 0 3.3-0.8 6-2.4 7.9-1.5 1.9-3.5 2.9-5.9 2.9-2.3 0-4.3-0.8-6-2.5 0 0-0.1 0-0.1 0 0 0 0 0 0 0v8.6c0 0.6-0.2 1.1-0.7 1.6-0.4 0.5-0.9 0.7-1.6 0.7zm36.8-17.6-8.6-18.3c-0.2-0.5-0.2-0.9 0.1-1.4 0.3-0.5 0.7-0.7 1.2-0.7h1.9c0.7 0 1.3 0.2 1.9 0.6 0.6 0.4 1 0.9 1.2 1.5l5.3 13.4c0 0 0 0 0.1 0 0 0 0 0 0 0l5.3-13.4c0.3-0.6 0.7-1.1 1.2-1.5 0.6-0.4 1.2-0.6 1.8-0.6h1.8c0.5 0 0.9 0.2 1.2 0.7 0.3 0.5 0.4 0.9 0.1 1.4l-8.3 18.4c-1.3 3-3 5.2-4.9 6.6-1.9 1.4-4.5 2.2-7.7 2.4-0.6 0-1.1-0.2-1.6-0.6-0.5-0.5-0.7-1-0.7-1.6 0-0.6 0.2-1.1 0.7-1.6 0.5-0.5 1-0.7 1.6-0.8 1.7-0.1 3.1-0.5 4-1.1 0.9-0.6 1.7-1.6 2.3-2.9 0.1-0.2 0.1-0.4 0-0.6zm16.9 8.8c-0.5 0-0.9-0.2-1.1-0.6-0.2-0.4-0.2-0.9 0-1.3l5.1-8.4c0.1-0.2 0.1-0.4 0-0.6l-4.9-8c-0.3-0.4-0.3-0.9 0-1.3 0.2-0.4 0.6-0.6 1.1-0.6h1.3c0.7 0 1.3 0.2 1.9 0.6 0.6 0.3 1.1 0.8 1.4 1.4l2.7 5.2c0 0 0 0 0 0 0 0 0 0 0 0l2.7-5.2c0.3-0.6 0.8-1.1 1.4-1.4 0.6-0.4 1.2-0.6 2-0.6h1.1c0.5 0 0.9 0.2 1.1 0.6 0.2 0.4 0.2 0.9 0 1.3l-4.9 8c-0.1 0.2-0.1 0.4 0 0.6l5.1 8.4c0.3 0.4 0.3 0.9 0 1.3-0.2 0.4-0.6 0.6-1.1 0.6h-1.3c-0.7 0-1.4-0.2-2-0.5-0.6-0.4-1-0.9-1.4-1.5l-2.9-5.6c0 0 0 0 0 0 0 0 0 0 0 0l-2.9 5.6c-0.3 0.6-0.8 1.1-1.4 1.5-0.6 0.3-1.2 0.5-1.9 0.5z" fill="#5c5b93"/>
</svg>